<?xml version="1.0" encoding="UTF-8"?>
<svg width="752pt" height="752pt" version="1.1" viewBox="0 0 752 752" xmlns="http://www.w3.org/2000/svg">
 <g>
  <path d="m288.51 264.18c-2.9609 0-4.832 3.2617-3.3203 5.8086l52.262 88.465c-13.535 11.051-22.199 27.762-22.199 46.48 0 33.219 27.215 60.16 60.656 60.16 33.461 0 60.676-26.941 60.676-60.16 0-18.719-8.6602-35.434-22.199-46.48l52.242-88.465c1.5-2.5469-0.33203-5.8086-3.3203-5.8086h-48.805c-1.3477 0-2.6094 0.73828-3.2891 1.9141l-35.582 60.266-8.582 14.582c-3.1797 5.5352-8.7969 2.6875-5.9414-5.1211l5.1523-14.035c2.6836-7.3711 2.0273-8.082-1.2031-13.676l-24.398-42.016c-0.67969-1.1797-1.9414-1.9141-3.3086-1.9141zm87.395 109.66c17.402 0 31.441 13.891 31.441 31.105 0 17.238-14.039 31.137-31.441 31.137-17.41 0-31.41-13.902-31.41-31.137 0.007812-17.215 14.004-31.105 31.41-31.105z" fill-rule="evenodd"/>
  <path d="m546.81 239.68c14.285 13.43 21.027 28.773 20.258 42.758-0.76953 13.891-9.0781 26.117-21.953 31.762-12.875 5.6211-24.285 3.7852-32.609-3.2617-8.3867-7.0781-13.844-19.105-13.793-34.344 0.03125-3.0938 2.332-3.4844 4.0586-2.8203 11.461 4.3008 20.938 8.0039 28.855 15.398-3.4219-17.484 4.9609-35.27 10.391-48.453 0.95703-2.3594 3.3125-2.4336 4.793-1.0391z"/>
  <path d="m577.54 388.09c4.4102 19.102 1.4805 35.598-6.9688 46.812-8.3555 11.098-22.039 16.664-35.867 14.172-13.844-2.5-22.281-10.359-25.324-20.832-3.043-10.551-0.88281-23.602 7.6445-36.199 1.7266-2.5586 3.8828-1.5938 4.9531-0.089844 7.1055 9.9258 12.938 18.281 15.438 28.832 6.8477-16.438 23.699-26.551 35.539-34.504 2.1172-1.4258 4.1094-0.16797 4.5859 1.8086z"/>
  <path d="m547.06 464.2c-4.1953 19.152-13.918 32.777-26.332 39.297-12.312 6.4688-27.051 5.6211-38.508-2.5742-11.43-8.168-15.703-18.879-13.922-29.652 1.7578-10.824 9.3203-21.684 22.426-29.441 2.6523-1.582 4.1953 0.22656 4.5195 2.0312 2.1562 12.035 3.8359 22.09 1.5625 32.672 13.238-11.93 32.805-13.812 46.918-15.953 2.4961-0.35938 3.7773 1.6211 3.3359 3.6211z"/>
  <path d="m393.95 527.53c0 9.9531-8.0703 18.023-18.023 18.023s-18.023-8.0703-18.023-18.023 8.0703-18.023 18.023-18.023 18.023 8.0703 18.023 18.023" fill-rule="evenodd"/>
  <path d="m513.27 264.52c-25.512-8.0625-27.758-25.105-27.758-52.488 0-5.6406 0.95703-6.2188 5.2617-5.3086 28.746 6.0781 40.316 32.555 29.73 55.25-1.7461 3.7266-3.8828 3.6133-7.2344 2.5469z"/>
  <path d="m573.48 308.83c10.988 16.254 14.191 32.691 10.359 46.18-3.7852 13.383-14.555 23.488-28.367 26.152-13.812 2.6562-24.531-1.6484-31.109-10.305-6.6289-8.7734-9.3125-21.707-5.918-36.535 0.72266-3.0156 3.0742-2.9062 4.6055-1.8828 10.223 6.7148 18.664 12.406 24.777 21.344 0.46484-17.785 12.582-33.297 20.75-44.973 1.4492-2.0938 3.7812-1.6484 4.9023 0.019531z"/>
  <path d="m490.69 523.15c-12.691 14.965-27.656 22.441-41.652 22.395-13.922-0.058594-26.559-7.7344-32.836-20.312-6.2773-12.578-5.0156-24.062 1.5938-32.723 6.6289-8.7383 18.387-14.797 33.566-15.512 3.1055-0.14062 3.6211 2.168 3.043 3.9258-3.6992 11.645-6.9258 21.289-13.898 29.594 17.266-4.3242 35.465 3.1562 48.922 7.8945 2.3828 0.82422 2.5781 3.1953 1.2617 4.7383z"/>
  <path d="m205.03 239.68c-14.309 13.43-21.016 28.773-20.258 42.758 0.76953 13.891 9.0781 26.117 21.953 31.762 12.887 5.6211 24.285 3.7852 32.621-3.2617 8.3867-7.0781 13.832-19.105 13.781-34.344-0.03125-3.0938-2.3516-3.4844-4.0781-2.8203-11.43 4.3008-20.918 8.0039-28.855 15.398 3.4531-17.484-4.9609-35.27-10.359-48.453-0.97266-2.3594-3.3242-2.4336-4.8047-1.0391z"/>
  <path d="m174.31 388.09c-4.4219 19.102-1.4805 35.598 6.9258 46.812 8.3672 11.098 22.062 16.664 35.906 14.172 13.832-2.5 22.281-10.359 25.293-20.832 3.043-10.551 0.875-23.602-7.6445-36.199-1.7266-2.5586-3.8633-1.5938-4.9375-0.089844-7.125 9.9258-12.938 18.281-15.43 28.832-6.8555-16.438-23.742-26.551-35.582-34.504-2.0625-1.4258-4.1016-0.16797-4.5312 1.8086z"/>
  <path d="m204.75 464.2c4.2266 19.152 13.953 32.777 26.34 39.297 12.336 6.4688 27.078 5.6211 38.508-2.5742 11.449-8.168 15.703-18.879 13.945-29.652-1.7773-10.824-9.3203-21.684-22.418-29.441-2.6641-1.582-4.1953 0.22656-4.5195 2.0312-2.168 12.035-3.8633 22.09-1.5625 32.672-13.266-11.93-32.836-13.812-46.926-15.953-2.4844-0.35938-3.8008 1.6211-3.3672 3.6211z"/>
  <path d="m238.57 264.52c25.488-8.0625 27.758-25.105 27.758-52.488 0-5.6406-0.95703-6.2188-5.2617-5.3086-28.777 6.0781-40.34 32.555-29.73 55.25 1.7227 3.7266 3.8594 3.6133 7.2344 2.5469z"/>
  <path d="m178.34 308.83c-10.996 16.254-14.172 32.691-10.359 46.18 3.8047 13.383 14.574 23.488 28.387 26.152 13.812 2.6562 24.5-1.6484 31.109-10.305 6.6289-8.7734 9.293-21.707 5.8867-36.535-0.67969-3.0156-3.043-2.9062-4.5742-1.8828-10.223 6.7148-18.664 12.406-24.777 21.344-0.49609-17.785-12.582-33.297-20.738-44.973-1.4609-2.0938-3.7852-1.6484-4.9336 0.019531z"/>
  <path d="m261.13 523.15c12.68 14.965 27.68 22.441 41.688 22.395 13.918-0.058594 26.559-7.7344 32.824-20.312 6.2773-12.582 5.0156-24.062-1.582-32.723-6.6602-8.7383-18.395-14.797-33.609-15.512-3.0938-0.14062-3.5898 2.168-3.043 3.9258 3.7305 11.645 6.9336 21.289 13.922 29.594-17.297-4.3242-35.465 3.1562-48.922 7.8945-2.3789 0.82422-2.5938 3.1953-1.2773 4.7383z"/>
 </g>
</svg>
